%% Category: admin (6 tables)
erDiagram
    tb_admin_casbin_policy {
        int id
        varchar_255_ sub
        varchar_255_ dom
        varchar_255_ obj
        varchar_255_ act
        enum__allow___deny__ eft
    }
    tb_admin_role {
        int id
        varchar_20_ system
        varchar_50_ name
        varchar_255_ locale_prop
        bit_1_ is_del
    }
    tb_admin_role_module {
        int role_id
        int module_id
    }
    tb_admin_role_permission {
        varchar_10_ regulator
        int role_id
        int permission_id
    }
    tb_admin_user_datascope {
        int user_id
        int org_id
        int datascope_type_id
    }
    tb_admin_user_role {
        int user_id
        int role_id
    }
    tb_admin_role ||--o{ tb_admin_role_module : "has"
    tb_admin_role ||--o{ tb_admin_user_role : "has"
    tb_admin_role ||--o{ tb_admin_role_permission : "has"

    %% Cross-category references:
    %% tb_marketing_dashboard_user (external) --> tb_admin_user_datascope
    %% tb_commission_package_org (external) --> tb_admin_user_datascope
    %% tb_datascope_type (external) --> tb_admin_user_datascope
    %% tb_role (external) --> tb_admin_role_module
    %% tb_config_module (external) --> tb_admin_role_module
    %% tb_marketing_dashboard_user (external) --> tb_admin_user_role
    %% tb_role (external) --> tb_admin_user_role
    %% tb_role (external) --> tb_admin_role_permission
    %% tb_sys_permission (external) --> tb_admin_role_permission